<mxfile host="app.diagrams.net" agent="Mozilla/5.0 (Windows NT 10.0; Win64; x64) AppleWebKit/537.36 (KHTML, like Gecko) Chrome/130.0.0.0 Safari/537.36" version="24.8.3">
  <diagram id="C5RBs43oDa-KdzZeNtuy" name="Page-1">
    <mxGraphModel dx="712" dy="795" grid="1" gridSize="10" guides="1" tooltips="1" connect="1" arrows="1" fold="1" page="1" pageScale="1" pageWidth="827" pageHeight="1169" math="0" shadow="0">
      <root>
        <mxCell id="WIyWlLk6GJQsqaUBKTNV-0" />
        <mxCell id="WIyWlLk6GJQsqaUBKTNV-1" parent="WIyWlLk6GJQsqaUBKTNV-0" />
        <mxCell id="wkB9sunweOSS6-qmWsdh-43" style="edgeStyle=none;curved=1;rounded=0;orthogonalLoop=1;jettySize=auto;html=1;exitX=0.5;exitY=1;exitDx=0;exitDy=0;fontSize=12;startSize=8;endSize=8;" edge="1" parent="WIyWlLk6GJQsqaUBKTNV-1" source="wkB9sunweOSS6-qmWsdh-0" target="wkB9sunweOSS6-qmWsdh-1">
          <mxGeometry relative="1" as="geometry" />
        </mxCell>
        <mxCell id="wkB9sunweOSS6-qmWsdh-0" value="start" style="ellipse;whiteSpace=wrap;html=1;" vertex="1" parent="WIyWlLk6GJQsqaUBKTNV-1">
          <mxGeometry x="300" y="40" width="120" height="50" as="geometry" />
        </mxCell>
        <mxCell id="wkB9sunweOSS6-qmWsdh-11" style="edgeStyle=none;curved=1;rounded=0;orthogonalLoop=1;jettySize=auto;html=1;entryX=0.5;entryY=0;entryDx=0;entryDy=0;fontSize=12;startSize=8;endSize=8;" edge="1" parent="WIyWlLk6GJQsqaUBKTNV-1" source="wkB9sunweOSS6-qmWsdh-1" target="wkB9sunweOSS6-qmWsdh-2">
          <mxGeometry relative="1" as="geometry" />
        </mxCell>
        <mxCell id="wkB9sunweOSS6-qmWsdh-1" value="assign the difference in the x coordinate of the current cell- next cell to variable" style="rounded=1;whiteSpace=wrap;html=1;" vertex="1" parent="WIyWlLk6GJQsqaUBKTNV-1">
          <mxGeometry x="300" y="140" width="120" height="60" as="geometry" />
        </mxCell>
        <mxCell id="wkB9sunweOSS6-qmWsdh-12" style="edgeStyle=none;curved=1;rounded=0;orthogonalLoop=1;jettySize=auto;html=1;exitX=1;exitY=0.5;exitDx=0;exitDy=0;entryX=0;entryY=0.5;entryDx=0;entryDy=0;fontSize=12;startSize=8;endSize=8;" edge="1" parent="WIyWlLk6GJQsqaUBKTNV-1" source="wkB9sunweOSS6-qmWsdh-2" target="wkB9sunweOSS6-qmWsdh-3">
          <mxGeometry relative="1" as="geometry" />
        </mxCell>
        <mxCell id="wkB9sunweOSS6-qmWsdh-14" style="edgeStyle=none;curved=1;rounded=0;orthogonalLoop=1;jettySize=auto;html=1;exitX=0.5;exitY=1;exitDx=0;exitDy=0;fontSize=12;startSize=8;endSize=8;" edge="1" parent="WIyWlLk6GJQsqaUBKTNV-1" source="wkB9sunweOSS6-qmWsdh-2" target="wkB9sunweOSS6-qmWsdh-6">
          <mxGeometry relative="1" as="geometry" />
        </mxCell>
        <mxCell id="wkB9sunweOSS6-qmWsdh-2" value="is the difference&lt;div&gt;&amp;nbsp;in x coordinates equal to 1&lt;/div&gt;" style="rhombus;whiteSpace=wrap;html=1;" vertex="1" parent="WIyWlLk6GJQsqaUBKTNV-1">
          <mxGeometry x="305" y="250" width="110" height="110" as="geometry" />
        </mxCell>
        <mxCell id="wkB9sunweOSS6-qmWsdh-13" style="edgeStyle=none;curved=1;rounded=0;orthogonalLoop=1;jettySize=auto;html=1;exitX=1;exitY=0.5;exitDx=0;exitDy=0;fontSize=12;startSize=8;endSize=8;" edge="1" parent="WIyWlLk6GJQsqaUBKTNV-1" source="wkB9sunweOSS6-qmWsdh-3" target="wkB9sunweOSS6-qmWsdh-5">
          <mxGeometry relative="1" as="geometry" />
        </mxCell>
        <mxCell id="wkB9sunweOSS6-qmWsdh-3" value="set the current walls dictionary attribute left to false" style="rounded=1;whiteSpace=wrap;html=1;" vertex="1" parent="WIyWlLk6GJQsqaUBKTNV-1">
          <mxGeometry x="470" y="275" width="120" height="60" as="geometry" />
        </mxCell>
        <mxCell id="wkB9sunweOSS6-qmWsdh-17" style="edgeStyle=none;curved=1;rounded=0;orthogonalLoop=1;jettySize=auto;html=1;fontSize=12;startSize=8;endSize=8;" edge="1" parent="WIyWlLk6GJQsqaUBKTNV-1" source="wkB9sunweOSS6-qmWsdh-5">
          <mxGeometry relative="1" as="geometry">
            <mxPoint x="710" y="390" as="targetPoint" />
          </mxGeometry>
        </mxCell>
        <mxCell id="wkB9sunweOSS6-qmWsdh-5" value="set the next walls dictionary attribute right to false" style="rounded=1;whiteSpace=wrap;html=1;" vertex="1" parent="WIyWlLk6GJQsqaUBKTNV-1">
          <mxGeometry x="650" y="275" width="120" height="60" as="geometry" />
        </mxCell>
        <mxCell id="wkB9sunweOSS6-qmWsdh-19" style="edgeStyle=none;curved=1;rounded=0;orthogonalLoop=1;jettySize=auto;html=1;exitX=1;exitY=0.5;exitDx=0;exitDy=0;entryX=0;entryY=0.5;entryDx=0;entryDy=0;fontSize=12;startSize=8;endSize=8;" edge="1" parent="WIyWlLk6GJQsqaUBKTNV-1" source="wkB9sunweOSS6-qmWsdh-6" target="wkB9sunweOSS6-qmWsdh-7">
          <mxGeometry relative="1" as="geometry" />
        </mxCell>
        <mxCell id="wkB9sunweOSS6-qmWsdh-22" style="edgeStyle=none;curved=1;rounded=0;orthogonalLoop=1;jettySize=auto;html=1;exitX=0.5;exitY=1;exitDx=0;exitDy=0;fontSize=12;startSize=8;endSize=8;" edge="1" parent="WIyWlLk6GJQsqaUBKTNV-1" source="wkB9sunweOSS6-qmWsdh-6" target="wkB9sunweOSS6-qmWsdh-9">
          <mxGeometry relative="1" as="geometry" />
        </mxCell>
        <mxCell id="wkB9sunweOSS6-qmWsdh-6" value="is the difference&lt;div&gt;&amp;nbsp;in x coordinates equal to -1&lt;/div&gt;" style="rhombus;whiteSpace=wrap;html=1;" vertex="1" parent="WIyWlLk6GJQsqaUBKTNV-1">
          <mxGeometry x="305" y="410" width="110" height="110" as="geometry" />
        </mxCell>
        <mxCell id="wkB9sunweOSS6-qmWsdh-20" style="edgeStyle=none;curved=1;rounded=0;orthogonalLoop=1;jettySize=auto;html=1;exitX=1;exitY=0.5;exitDx=0;exitDy=0;fontSize=12;startSize=8;endSize=8;" edge="1" parent="WIyWlLk6GJQsqaUBKTNV-1" source="wkB9sunweOSS6-qmWsdh-7" target="wkB9sunweOSS6-qmWsdh-8">
          <mxGeometry relative="1" as="geometry" />
        </mxCell>
        <mxCell id="wkB9sunweOSS6-qmWsdh-7" value="set the current walls dictionary attribute right to false" style="rounded=1;whiteSpace=wrap;html=1;" vertex="1" parent="WIyWlLk6GJQsqaUBKTNV-1">
          <mxGeometry x="470" y="435" width="120" height="60" as="geometry" />
        </mxCell>
        <mxCell id="wkB9sunweOSS6-qmWsdh-23" style="edgeStyle=none;curved=1;rounded=0;orthogonalLoop=1;jettySize=auto;html=1;fontSize=12;startSize=8;endSize=8;" edge="1" parent="WIyWlLk6GJQsqaUBKTNV-1" source="wkB9sunweOSS6-qmWsdh-8">
          <mxGeometry relative="1" as="geometry">
            <mxPoint x="710" y="550" as="targetPoint" />
          </mxGeometry>
        </mxCell>
        <mxCell id="wkB9sunweOSS6-qmWsdh-8" value="set the next walls dictionary attribute left to false" style="rounded=1;whiteSpace=wrap;html=1;" vertex="1" parent="WIyWlLk6GJQsqaUBKTNV-1">
          <mxGeometry x="650" y="435" width="120" height="60" as="geometry" />
        </mxCell>
        <mxCell id="wkB9sunweOSS6-qmWsdh-31" style="edgeStyle=none;curved=1;rounded=0;orthogonalLoop=1;jettySize=auto;html=1;fontSize=12;startSize=8;endSize=8;" edge="1" parent="WIyWlLk6GJQsqaUBKTNV-1" source="wkB9sunweOSS6-qmWsdh-9" target="wkB9sunweOSS6-qmWsdh-25">
          <mxGeometry relative="1" as="geometry" />
        </mxCell>
        <mxCell id="wkB9sunweOSS6-qmWsdh-9" value="assign the difference in the y coordinate of the current cell- next cell to variable" style="rounded=1;whiteSpace=wrap;html=1;" vertex="1" parent="WIyWlLk6GJQsqaUBKTNV-1">
          <mxGeometry x="300" y="570" width="120" height="60" as="geometry" />
        </mxCell>
        <mxCell id="wkB9sunweOSS6-qmWsdh-10" style="edgeStyle=none;curved=1;rounded=0;orthogonalLoop=1;jettySize=auto;html=1;exitX=0.75;exitY=1;exitDx=0;exitDy=0;fontSize=12;startSize=8;endSize=8;" edge="1" parent="WIyWlLk6GJQsqaUBKTNV-1" source="wkB9sunweOSS6-qmWsdh-1" target="wkB9sunweOSS6-qmWsdh-1">
          <mxGeometry relative="1" as="geometry" />
        </mxCell>
        <mxCell id="wkB9sunweOSS6-qmWsdh-18" value="" style="endArrow=classic;html=1;rounded=0;fontSize=12;startSize=8;endSize=8;curved=1;" edge="1" parent="WIyWlLk6GJQsqaUBKTNV-1">
          <mxGeometry width="50" height="50" relative="1" as="geometry">
            <mxPoint x="710" y="390" as="sourcePoint" />
            <mxPoint x="360" y="390" as="targetPoint" />
          </mxGeometry>
        </mxCell>
        <mxCell id="wkB9sunweOSS6-qmWsdh-24" value="" style="endArrow=classic;html=1;rounded=0;fontSize=12;startSize=8;endSize=8;curved=1;" edge="1" parent="WIyWlLk6GJQsqaUBKTNV-1">
          <mxGeometry width="50" height="50" relative="1" as="geometry">
            <mxPoint x="710" y="550" as="sourcePoint" />
            <mxPoint x="360" y="550" as="targetPoint" />
          </mxGeometry>
        </mxCell>
        <mxCell id="wkB9sunweOSS6-qmWsdh-32" style="edgeStyle=none;curved=1;rounded=0;orthogonalLoop=1;jettySize=auto;html=1;fontSize=12;startSize=8;endSize=8;" edge="1" parent="WIyWlLk6GJQsqaUBKTNV-1" source="wkB9sunweOSS6-qmWsdh-25" target="wkB9sunweOSS6-qmWsdh-26">
          <mxGeometry relative="1" as="geometry" />
        </mxCell>
        <mxCell id="wkB9sunweOSS6-qmWsdh-34" style="edgeStyle=none;curved=1;rounded=0;orthogonalLoop=1;jettySize=auto;html=1;fontSize=12;startSize=8;endSize=8;" edge="1" parent="WIyWlLk6GJQsqaUBKTNV-1" source="wkB9sunweOSS6-qmWsdh-25" target="wkB9sunweOSS6-qmWsdh-28">
          <mxGeometry relative="1" as="geometry" />
        </mxCell>
        <mxCell id="wkB9sunweOSS6-qmWsdh-25" value="is the difference&lt;div&gt;&amp;nbsp;in y coordinates equal to 1&lt;/div&gt;" style="rhombus;whiteSpace=wrap;html=1;" vertex="1" parent="WIyWlLk6GJQsqaUBKTNV-1">
          <mxGeometry x="305" y="690" width="110" height="110" as="geometry" />
        </mxCell>
        <mxCell id="wkB9sunweOSS6-qmWsdh-33" style="edgeStyle=none;curved=1;rounded=0;orthogonalLoop=1;jettySize=auto;html=1;fontSize=12;startSize=8;endSize=8;" edge="1" parent="WIyWlLk6GJQsqaUBKTNV-1" source="wkB9sunweOSS6-qmWsdh-26" target="wkB9sunweOSS6-qmWsdh-27">
          <mxGeometry relative="1" as="geometry" />
        </mxCell>
        <mxCell id="wkB9sunweOSS6-qmWsdh-26" value="set the current walls dictionary attribute top to false" style="rounded=1;whiteSpace=wrap;html=1;" vertex="1" parent="WIyWlLk6GJQsqaUBKTNV-1">
          <mxGeometry x="470" y="715" width="120" height="60" as="geometry" />
        </mxCell>
        <mxCell id="wkB9sunweOSS6-qmWsdh-41" style="edgeStyle=none;curved=1;rounded=0;orthogonalLoop=1;jettySize=auto;html=1;fontSize=12;startSize=8;endSize=8;" edge="1" parent="WIyWlLk6GJQsqaUBKTNV-1" source="wkB9sunweOSS6-qmWsdh-27">
          <mxGeometry relative="1" as="geometry">
            <mxPoint x="710" y="830" as="targetPoint" />
          </mxGeometry>
        </mxCell>
        <mxCell id="wkB9sunweOSS6-qmWsdh-27" value="set the next walls dictionary attribute bottom to false" style="rounded=1;whiteSpace=wrap;html=1;" vertex="1" parent="WIyWlLk6GJQsqaUBKTNV-1">
          <mxGeometry x="650" y="715" width="120" height="60" as="geometry" />
        </mxCell>
        <mxCell id="wkB9sunweOSS6-qmWsdh-35" style="edgeStyle=none;curved=1;rounded=0;orthogonalLoop=1;jettySize=auto;html=1;fontSize=12;startSize=8;endSize=8;" edge="1" parent="WIyWlLk6GJQsqaUBKTNV-1" source="wkB9sunweOSS6-qmWsdh-28" target="wkB9sunweOSS6-qmWsdh-29">
          <mxGeometry relative="1" as="geometry" />
        </mxCell>
        <mxCell id="wkB9sunweOSS6-qmWsdh-38" style="edgeStyle=none;curved=1;rounded=0;orthogonalLoop=1;jettySize=auto;html=1;exitX=0.5;exitY=1;exitDx=0;exitDy=0;entryX=0.5;entryY=0;entryDx=0;entryDy=0;fontSize=12;startSize=8;endSize=8;" edge="1" parent="WIyWlLk6GJQsqaUBKTNV-1" source="wkB9sunweOSS6-qmWsdh-28" target="wkB9sunweOSS6-qmWsdh-37">
          <mxGeometry relative="1" as="geometry" />
        </mxCell>
        <mxCell id="wkB9sunweOSS6-qmWsdh-28" value="is the difference&lt;div&gt;&amp;nbsp;in y coordinates equal to -1&lt;/div&gt;" style="rhombus;whiteSpace=wrap;html=1;" vertex="1" parent="WIyWlLk6GJQsqaUBKTNV-1">
          <mxGeometry x="305" y="850" width="110" height="110" as="geometry" />
        </mxCell>
        <mxCell id="wkB9sunweOSS6-qmWsdh-36" style="edgeStyle=none;curved=1;rounded=0;orthogonalLoop=1;jettySize=auto;html=1;fontSize=12;startSize=8;endSize=8;" edge="1" parent="WIyWlLk6GJQsqaUBKTNV-1" source="wkB9sunweOSS6-qmWsdh-29" target="wkB9sunweOSS6-qmWsdh-30">
          <mxGeometry relative="1" as="geometry" />
        </mxCell>
        <mxCell id="wkB9sunweOSS6-qmWsdh-29" value="set the current walls dictionary attribute bottom to false" style="rounded=1;whiteSpace=wrap;html=1;" vertex="1" parent="WIyWlLk6GJQsqaUBKTNV-1">
          <mxGeometry x="470" y="875" width="120" height="60" as="geometry" />
        </mxCell>
        <mxCell id="wkB9sunweOSS6-qmWsdh-39" style="edgeStyle=none;curved=1;rounded=0;orthogonalLoop=1;jettySize=auto;html=1;fontSize=12;startSize=8;endSize=8;" edge="1" parent="WIyWlLk6GJQsqaUBKTNV-1" source="wkB9sunweOSS6-qmWsdh-30">
          <mxGeometry relative="1" as="geometry">
            <mxPoint x="710" y="990" as="targetPoint" />
          </mxGeometry>
        </mxCell>
        <mxCell id="wkB9sunweOSS6-qmWsdh-30" value="set the next walls dictionary attribute top to false&amp;nbsp;" style="rounded=1;whiteSpace=wrap;html=1;" vertex="1" parent="WIyWlLk6GJQsqaUBKTNV-1">
          <mxGeometry x="650" y="875" width="120" height="60" as="geometry" />
        </mxCell>
        <mxCell id="wkB9sunweOSS6-qmWsdh-37" value="end" style="ellipse;whiteSpace=wrap;html=1;" vertex="1" parent="WIyWlLk6GJQsqaUBKTNV-1">
          <mxGeometry x="300" y="1010" width="120" height="50" as="geometry" />
        </mxCell>
        <mxCell id="wkB9sunweOSS6-qmWsdh-40" value="" style="endArrow=classic;html=1;rounded=0;fontSize=12;startSize=8;endSize=8;curved=1;" edge="1" parent="WIyWlLk6GJQsqaUBKTNV-1">
          <mxGeometry width="50" height="50" relative="1" as="geometry">
            <mxPoint x="710" y="990" as="sourcePoint" />
            <mxPoint x="360" y="990" as="targetPoint" />
          </mxGeometry>
        </mxCell>
        <mxCell id="wkB9sunweOSS6-qmWsdh-42" value="" style="endArrow=classic;html=1;rounded=0;fontSize=12;startSize=8;endSize=8;curved=1;" edge="1" parent="WIyWlLk6GJQsqaUBKTNV-1">
          <mxGeometry width="50" height="50" relative="1" as="geometry">
            <mxPoint x="710" y="830" as="sourcePoint" />
            <mxPoint x="360" y="830" as="targetPoint" />
          </mxGeometry>
        </mxCell>
      </root>
    </mxGraphModel>
  </diagram>
</mxfile>
